<?xml version="1.0" standalone="no"?>
<!DOCTYPE svg PUBLIC "-//W3C//DTD SVG 20010904//EN"
 "http://www.w3.org/TR/2001/REC-SVG-20010904/DTD/svg10.dtd">
<svg version="1.0" xmlns="http://www.w3.org/2000/svg"
 width="325.000000pt" height="325.000000pt" viewBox="0 0 325.000000 325.000000"
 preserveAspectRatio="xMidYMid meet">
<metadata>
Created by potrace 1.11, written by Peter Selinger 2001-2013
</metadata>
<g transform="translate(0.000000,325.000000) scale(0.100000,-0.100000)"
fill="#000000" stroke="none">
<path d="M2073 2608 l-292 -292 -81 82 c-45 45 -83 82 -85 82 -3 0 -38 -34
-78 -75 -41 -41 -78 -75 -83 -75 -5 0 -135 126 -289 280 l-280 280 -439 -439
-439 -439 195 -198 c108 -110 248 -253 313 -319 64 -66 267 -273 450 -460 183
-187 404 -413 492 -503 l159 -164 456 459 c586 588 1152 1159 1166 1176 9 10
-84 108 -431 455 l-442 442 -292 -292z m637 -189 c0 -4 -85 -92 -190 -196
l-189 -189 193 -193 192 -192 -174 -175 -175 -175 -34 33 c-19 18 -133 131
-253 251 l-219 219 105 104 c57 58 104 109 104 114 0 4 -50 58 -112 120 l-112
111 260 260 259 259 172 -172 c95 -95 173 -176 173 -179z m-1440 -280 l-119
-118 110 -110 c60 -60 109 -112 109 -116 0 -3 -112 -118 -248 -255 l-249 -248
-176 176 -177 177 187 187 188 188 -188 188 -187 187 182 183 183 182 252
-252 252 -251 -119 -118z m1653 73 l178 -178 -182 -182 -181 -182 -181 181
-181 180 180 180 c98 98 181 179 184 179 3 0 85 -80 183 -178z m-1227 88 l33
-35 -54 -55 -55 -55 -55 55 c-30 30 -55 57 -55 61 0 4 23 30 52 58 l52 51 24
-22 c14 -13 40 -39 58 -58z m-1017 -104 l174 -174 -177 -178 -177 -178 -177
177 -177 177 175 175 c96 96 177 175 180 175 3 0 83 -78 179 -174z m821 -51
l54 -55 -29 -30 -28 -30 26 -23 c15 -12 27 -26 27 -30 0 -4 -27 -35 -60 -69
l-61 -61 -31 29 c-83 78 -138 138 -135 148 5 16 160 173 172 175 6 0 35 -24
65 -54z m401 -48 l77 -79 -47 -44 c-25 -25 -62 -62 -82 -84 l-37 -38 -48 47
c-80 78 -80 76 -49 107 l26 26 -27 29 -28 29 54 55 c62 63 47 67 161 -48z
m-223 -270 l53 -53 -29 -30 c-16 -16 -43 -42 -59 -57 l-31 -29 -56 58 -57 57
53 54 c29 29 57 53 63 53 6 0 34 -24 63 -53z m-147 -188 c92 -92 73 -94 182
15 l69 69 74 -74 c41 -40 74 -77 74 -82 0 -5 -72 -81 -161 -170 l-161 -160
-161 161 -162 162 80 80 c44 44 81 80 83 80 2 0 39 -36 83 -81z m252 -285 c97
97 180 176 184 176 5 0 77 -69 162 -154 l154 -154 -330 -331 c-182 -182 -334
-331 -337 -331 -4 0 -156 149 -338 331 l-331 331 154 154 154 154 176 -176
175 -175 177 175z"/>
</g>
</svg>
